<?xml version="1.0" encoding="UTF-8" standalone="no"?>
<!-- Created with Inkscape (http://www.inkscape.org/) -->

<svg
   width="128"
   height="128"
   viewBox="0 0 33.866666 33.866668"
   version="1.1"
   id="svg5"
   inkscape:version="1.1 (c68e22c387, 2021-05-23)"
   sodipodi:docname="drawing.svg"
   xmlns:inkscape="http://www.inkscape.org/namespaces/inkscape"
   xmlns:sodipodi="http://sodipodi.sourceforge.net/DTD/sodipodi-0.dtd"
   xmlns="http://www.w3.org/2000/svg"
   xmlns:svg="http://www.w3.org/2000/svg">
  <sodipodi:namedview
     id="namedview7"
     pagecolor="#ffffff"
     bordercolor="#666666"
     borderopacity="1.0"
     inkscape:pageshadow="2"
     inkscape:pageopacity="0.0"
     inkscape:pagecheckerboard="0"
     inkscape:document-units="mm"
     showgrid="false"
     units="px"
     inkscape:zoom="2.6832492"
     inkscape:cx="98.201838"
     inkscape:cy="45.280924"
     inkscape:window-width="1920"
     inkscape:window-height="1017"
     inkscape:window-x="-8"
     inkscape:window-y="-8"
     inkscape:window-maximized="1"
     inkscape:current-layer="layer1" />
  <defs
     id="defs2" />
  <g
     inkscape:label="Layer 1"
     inkscape:groupmode="layer"
     id="layer1">
    <g
       id="g4198"
       transform="matrix(0.97125631,0,0,0.96798174,0.29312149,0.69427835)">
      <rect
         style="fill:#ffffff;stroke:#999999;stroke-width:0.264583"
         id="rect3424"
         width="34.117531"
         height="34.216137"
         x="0"
         y="-0.29581672"
         ry="3.3183513" />
      <g
         id="g3400">
        <g
           id="g1336"
           transform="translate(36.163316,0.49127493)">
          <path
             id="path1303"
             style="fill:#d40000;stroke-width:0.913225"
             d="m -32.623475,20.656262 c 0.0619,2.013683 0.679011,3.992913 1.773991,5.68433 1.49206,2.279233 3.756439,4.001161 6.293254,4.968532 2.878573,1.103492 6.099831,1.282417 9.086685,0.524606 2.567409,-0.647196 4.960613,-2.005988 6.7609765,-3.956544 1.688758,-1.871045 2.81005,-4.293607 2.925393,-6.8284 0.127193,-0.608813 0.143681,-1.118052 -0.630378,-0.902759 -8.7520995,-0.0052 -17.5041985,-0.01128 -26.2562965,-0.01593 0.01546,0.175391 0.03092,0.350782 0.04637,0.526174 z" />
          <path
             id="path1305"
             style="fill:#d40000;stroke:none;stroke-width:0.238488px;stroke-linecap:butt;stroke-linejoin:miter;stroke-opacity:1"
             d="m -20.233972,0.56076013 c -3.466357,4.20941947 -7.558559,7.96137827 -10.433351,12.61066287 -1.312665,2.156916 -2.211068,4.646885 -1.986202,7.187449 8.970272,0.0045 17.940543,0.01122 26.9108135,0.01566 -0.396975,-3.819792 -2.716555,-7.08562 -5.0700125,-10.027824 -2.869082,-3.5365803 -6.098676,-6.7621589 -9.054291,-10.21743862 -0.122318,0.14383025 -0.244637,0.28766045 -0.366957,0.43149075 z" />
        </g>
        <g
           id="g1314"
           style="fill:#aa0000">
          <path
             id="path31"
             style="fill:#aa0000;stroke-width:3.45156"
             d="m 21.716797,79.25 c -3.774853,1.124239 -6.365393,2.998744 -7.988501,4.398222 0.640444,6.671384 2.532966,13.432123 6.18186,19.068578 5.639281,8.61442 14.197197,15.12309 23.785156,18.77929 10.879646,4.17068 23.054853,4.84659 34.34375,1.98243 9.703594,-2.4461 18.74821,-7.58095 25.552738,-14.95313 4.92832,-5.4603 8.57556,-12.164205 10.18359,-19.345702 l -0.0273,-3.011719 c 0,0 -18.614973,23.397471 -25.203128,18.126951 -3.463032,-2.77042 -5.473299,-13.912579 -7.9375,-25.009764 -6.405604,-0.004 -12.811194,-0.0077 -19.216797,-0.01172 -0.868267,5.509857 -1.683061,9.544744 -2.888672,8.683593 -2.353317,-1.68094 0.244647,-0.279879 -0.224179,-3.88726 -3.731122,-0.0023 -8.021261,-4.803787 -11.752383,-4.806087 -1.411706,3.884962 -3.436632,7.153342 -9.894532,2.632812 -1.794039,-1.255828 -3.557289,-2.106173 -5.263671,-2.640625 -3.216799,-0.0019 -6.433593,-0.0041 -9.650391,-0.0059 z"
             transform="scale(0.26458333)"
             sodipodi:nodetypes="scccccccsccsccsccs" />
          <path
             id="path146"
             style="fill:#aa0000;stroke:none;stroke-width:0.901372px;stroke-linecap:butt;stroke-linejoin:miter;stroke-opacity:1"
             d="m 69.416016,54.576172 c -4.810551,-0.335047 -6.542886,15.549454 -8.160157,25.560547 6.514274,0.0041 13.028696,0.0078 19.542969,0.01172 -2.26685,-10.299277 -4.881851,-20.747502 -9.382812,-24.605469 -0.72058,-0.61764 -1.385854,-0.924023 -2,-0.966798 z M 50.837891,72.412109 c -2.637852,0.09934 -3.283821,4.36865 -4.646485,7.716797 3.865856,0.0024 8.220553,3.938463 12.086408,3.940863 -0.07161,-2.30905 -1.45142,-8.692345 -5.045392,-10.87051 -0.951165,-0.576464 -1.735124,-0.811943 -2.394531,-0.78711 z m -24.164063,6.103516 c -2.716741,-0.01625 -5.198399,0.663842 -7.316406,1.597656 4.742802,0.0025 9.485713,0.0051 14.228516,0.0078 -2.412405,-1.132853 -4.737754,-1.592462 -6.91211,-1.605469 z"
             transform="scale(0.26458333)"
             sodipodi:nodetypes="sccsscccsccsccss" />
        </g>
        <g
           id="g1378"
           style="fill:#550000"
           transform="matrix(-0.77673697,0,0,0.58956563,29.946902,13.598098)">
          <path
             id="path1374"
             style="fill:#550000;stroke-width:3.45156"
             d="m 21.716797,79.25 c -3.774853,1.124239 -12.8217073,7.356984 -14.4448153,8.756462 2.0823567,4.54821 5.9358183,11.08531 10.5601233,15.939548 5.639281,8.61442 16.275248,13.89388 25.863207,17.55008 10.879646,4.17068 23.054853,4.84659 34.34375,1.98243 9.703594,-2.4461 18.74821,-8.64254 26.316108,-14.84138 4.92832,-5.4603 11.79865,-12.834685 12.81296,-16.552057 v 0 c 0,0 -22.035013,17.480357 -28.623168,12.209837 -3.463032,-2.77042 -5.473299,-13.912579 -7.9375,-25.009764 -6.405604,-0.004 -12.811194,-0.0077 -19.216797,-0.01172 -0.868267,5.509857 -1.683061,9.544744 -2.888672,8.683593 -2.353317,-1.68094 -0.314377,-5.078166 -0.783203,-8.685547 -3.731122,-0.0023 -7.462237,-0.0055 -11.193359,-0.0078 -1.411706,3.884962 -3.436632,7.153342 -9.894532,2.632812 -1.794039,-1.255828 -3.557289,-2.106173 -5.263671,-2.640625 -3.216799,-0.0019 -6.433593,-0.0041 -9.650391,-0.0059 z"
             transform="scale(0.26458333)"
             sodipodi:nodetypes="scccccccsccsccscss" />
          <path
             id="path1376"
             style="fill:#550000;stroke:none;stroke-width:0.901372px;stroke-linecap:butt;stroke-linejoin:miter;stroke-opacity:1"
             d="m 69.416016,54.576172 c -4.810551,-0.335047 -6.542886,15.549454 -8.160157,25.560547 6.514274,0.0041 13.028696,0.0078 19.542969,0.01172 -2.26685,-10.299277 -4.881851,-20.747502 -9.382812,-24.605469 -0.72058,-0.61764 -1.385854,-0.924023 -2,-0.966798 z M 50.837891,72.412109 c -2.637852,0.09934 -3.283821,4.36865 -4.646485,7.716797 3.865856,0.0024 7.731801,0.0035 11.597656,0.0059 -0.07161,-2.30905 -0.962668,-4.757382 -4.55664,-6.935547 -0.951165,-0.576464 -1.735124,-0.811943 -2.394531,-0.78711 z m -24.164063,6.103516 c -2.716741,-0.01625 -5.198399,0.663842 -7.316406,1.597656 4.742802,0.0025 9.485713,0.0051 14.228516,0.0078 -2.412405,-1.132853 -4.737754,-1.592462 -6.91211,-1.605469 z"
             transform="scale(0.26458333)" />
        </g>
      </g>
    </g>
  </g>
</svg>
