<svg width="154" height="145" viewBox="0 0 154 145" fill="none" xmlns="http://www.w3.org/2000/svg">
    <path
        d="M137.359 1.74655H15.9885C7.89443 1.74655 1.33289 7.9038 1.33289 15.4992V129.8C1.33289 137.395 7.89443 143.552 15.9885 143.552H137.359C145.453 143.552 152.014 137.395 152.014 129.8V15.4992C152.014 7.9038 145.453 1.74655 137.359 1.74655Z"
        fill="white" stroke="#999999" stroke-width="0.969616" />
    <path
        d="M16.9668 90.6166C17.2401 98.9621 19.9656 107.165 24.8016 114.175C31.3914 123.621 41.3921 130.757 52.596 134.766C65.3094 139.34 79.5362 140.081 92.7277 136.941C104.067 134.258 114.636 128.627 122.588 120.543C130.046 112.789 134.999 102.749 135.508 92.2434C136.07 89.7202 136.143 87.6097 132.724 88.502C94.0699 88.4804 55.4159 88.4552 16.7619 88.4359C16.8302 89.1628 16.8985 89.8897 16.9667 90.6166L16.9668 90.6166Z"
        fill="#D40000" />
    <path
        d="M71.6855 7.33259C56.3762 24.7781 38.3028 40.3278 25.6062 59.5963C19.8087 68.5355 15.8409 78.8549 16.834 89.3841C56.4516 89.4027 96.0691 89.4306 135.687 89.449C133.933 73.6182 123.689 60.0833 113.295 47.8896C100.623 33.2325 86.3597 19.8644 73.3061 5.54431C72.7659 6.1404 72.2257 6.73649 71.6855 7.33259V7.33259Z"
        fill="#D40000" />
    <path
        d="M26.7099 89.8735C22.2988 91.1062 19.2717 93.1617 17.375 94.6963C18.1234 102.012 20.3349 109.425 24.5988 115.606C31.1885 125.052 41.1888 132.189 52.3927 136.198C65.1061 140.771 79.3333 141.513 92.5249 138.372C103.864 135.69 114.433 130.059 122.384 121.975C128.143 115.988 132.405 108.637 134.284 100.762L134.252 97.4593C134.252 97.4593 112.5 123.116 104.801 117.336C100.755 114.298 98.4057 102.081 95.5262 89.912C88.0409 89.9076 80.5557 89.9036 73.0705 89.8992C72.0559 95.9409 71.1038 100.365 69.695 99.4211C66.945 97.5779 69.9809 99.1142 69.433 95.1585C65.073 95.156 60.0598 89.891 55.6998 89.8885C54.0502 94.1485 51.684 97.7324 44.1377 92.7755C42.0413 91.3984 39.9808 90.4659 37.9868 89.8799C34.2279 89.8778 30.4689 89.8754 26.71 89.8734L26.7099 89.8735Z"
        fill="#AA0000" />
    <path
        d="M82.4485 62.8176C76.8271 62.4502 74.8028 79.8682 72.913 90.8458C80.5252 90.8503 88.1376 90.8543 95.7498 90.8586C93.1009 79.565 90.0451 68.1081 84.7856 63.8777C83.9435 63.2004 83.1661 62.8645 82.4485 62.8176ZM60.7392 82.3754C57.6567 82.4844 56.9019 87.1658 55.3095 90.8372C59.827 90.8398 64.9156 95.1559 69.433 95.1585C69.3493 92.6266 67.737 85.627 63.5373 83.2386C62.4258 82.6065 61.5097 82.3482 60.7392 82.3755V82.3754ZM32.5024 89.0682C29.3278 89.0504 26.4279 89.7961 23.9529 90.8201C29.495 90.8228 35.0373 90.8257 40.5795 90.8286C37.7605 89.5864 35.0432 89.0824 32.5024 89.0682V89.0682Z"
        fill="#AA0000" />
    <path
        d="M113.883 110.562C117.31 111.289 125.521 115.319 126.994 116.223C125.104 119.164 121.606 123.39 117.409 126.528C112.291 132.097 102.637 135.51 93.9345 137.874C84.0596 140.57 73.0087 141.007 62.7624 139.155C53.9549 137.574 45.7455 133.568 38.8765 129.561C34.4034 126.031 28.1675 121.263 27.2469 118.86C27.2469 118.86 47.2469 130.161 53.2267 126.754C56.3699 124.963 58.1945 117.759 60.4312 110.585C66.2452 110.583 72.0592 110.58 77.8733 110.578C78.6614 114.14 79.4009 116.748 80.4952 116.191C82.6312 115.105 80.7805 112.908 81.2061 110.576C84.5926 110.575 87.9792 110.573 91.3657 110.571C92.6471 113.083 94.485 115.196 100.347 112.273C101.975 111.461 103.575 110.912 105.124 110.566C108.044 110.565 110.964 110.564 113.883 110.562L113.883 110.562Z"
        fill="#550000" />
    <path
        d="M70.5891 94.6112C74.9554 94.3946 76.5277 104.664 77.9957 111.136C72.083 111.138 66.1702 111.141 60.2575 111.143C62.315 104.485 64.6885 97.7303 68.7738 95.2362C69.4278 94.8369 70.0317 94.6388 70.5891 94.6112ZM87.4515 106.142C89.8458 106.206 90.4321 108.966 91.6689 111.131C88.1601 111.132 84.6511 111.133 81.1423 111.134C81.2073 109.642 82.0161 108.059 85.2781 106.651C86.1415 106.278 86.853 106.126 87.4515 106.142V106.142ZM109.384 110.088C111.85 110.077 114.102 110.517 116.025 111.121C111.72 111.122 107.415 111.124 103.11 111.126C105.3 110.393 107.41 110.096 109.384 110.088V110.088Z"
        fill="#550000" />
</svg>